<svg xmlns="http://www.w3.org/2000/svg" viewBox="0 0 410 404"><defs><linearGradient id="a" x1="8.16" y1="6.36" x2="32.58" y2="38.79" gradientUnits="userSpaceOnUse"><stop stop-color="#41d1ff"/><stop offset="1" stop-color="#bd34fe"/></linearGradient><linearGradient id="b" x1="18.4" y1="14.63" x2="26.3" y2="27.55" gradientUnits="userSpaceOnUse"><stop stop-color="#ffea83"/><stop offset=".08" stop-color="#ffdd35"/><stop offset="1" stop-color="#ffa800"/></linearGradient></defs><path fill="url(#a)" d="M399.641 59.524 215.643 388.545c-7.484 13.876-27.304 13.891-34.809.027L10.24 59.556c-7.933-14.67 3.724-32.244 20.322-29.249l174.51 31.08a19.885 19.885 0 0 0 6.962-.02l166.001-30.974c16.565-3.092 28.27 14.382 20.347 29.05Z"/><path fill="url(#b)" d="M292.965.042 156.789 28.667a9.952 9.952 0 0 0-7.906 10.444l7.597 130.92c.458 7.895 8.386 13.118 15.923 10.301l39.703-14.75c7.66-2.848 15.995 2.43 16.45 10.57l1.943 34.5c.457 8.106 8.969 13.314 16.573 10.266l24.253-9.59c7.626-3.02 16.108 2.26 16.556 10.4l4.382 79.44c.552 9.999 14.289 12.967 18.743 4.092L341.81 105.07c3.544-7.014-.9-15.432-8.566-16.875l-41.897-7.923c-7.67-1.45-12.08-9.69-8.645-16.744L308.7 12.548C312.291 5.308 303.97-1.431 296.327.158Z"/></svg>